<svg xmlns="http://www.w3.org/2000/svg" width="247" height="121.84122249338196" viewBox="0 0 247 121.84122249338196" class="editor-view__logo-preview" data-v-719f541d="" data-v-42122950=""><svg id="mark" viewBox="0 0 512 350" width="100" height="68.359375" x="73.5" y="0" data-v-719f541d="" style="fill: rgb(0, 0, 0);"><rect x="0" y="0" width="100%" height="100%" fill="none" data-v-719f541d=""></rect><g data-v-719f541d="">
	<path xmlns="http://www.w3.org/2000/svg" d="M 412.498 4.938 C 408.097 5.353, 402.922 6.503, 400.998 7.495 C 395.676 10.238, 377.355 22.702, 278.500 90.830 C 268.600 97.653, 248.086 111.455, 232.914 121.501 C 217.742 131.547, 204.318 141.052, 203.083 142.622 C 201.341 144.836, 200.970 146.265, 201.432 148.989 C 201.759 150.920, 202.133 153.207, 202.263 154.071 C 202.397 154.957, 198.143 159.709, 192.500 164.978 C 187 170.112, 168.440 188.237, 151.256 205.255 L 120.011 236.196 115.136 231.848 C 104.942 222.758, 91.597 216.787, 77.467 214.996 C 54.678 212.106, 29.564 223.605, 15.651 243.299 C 1.914 262.742, 0.376 287.589, 11.504 310.255 C 16.992 321.433, 29.708 334.252, 41 339.989 C 55.224 347.216, 76.785 348.420, 91.747 342.822 C 107.479 336.936, 121.672 324.344, 128.743 310 C 134.045 299.243, 135.967 291.008, 135.985 278.960 C 136.004 266.965, 134.241 259.880, 128.406 248.500 L 123.791 239.500 164.098 199.831 L 204.406 160.162 211.453 159.501 C 228.047 157.944, 255.220 151.257, 273 144.354 C 297.111 134.993, 318.754 121.848, 380.337 79.164 C 392.347 70.839, 403.840 63.529, 405.876 62.919 C 414.663 60.286, 423.737 66.172, 426.955 76.591 C 430.569 88.291, 434.874 129.748, 432.626 131.201 C 432.029 131.586, 409.932 131.663, 383.521 131.371 C 357.109 131.079, 330.983 131.252, 325.461 131.754 C 315.759 132.638, 314.854 132.938, 298.461 140.724 C 272.125 153.232, 257.585 158.201, 243.347 159.558 L 236.193 160.239 239.081 165.137 C 243.109 171.969, 287.454 258.633, 292.221 268.989 C 296.250 277.743, 299.451 290.005, 298.493 293.022 C 298.194 293.965, 297.132 295.476, 296.133 296.380 C 294.483 297.873, 293.926 297.885, 290.033 296.512 C 283.199 294.100, 276.084 294.553, 269.882 297.793 C 253.726 306.233, 251.302 327.543, 265.150 339.397 C 277.114 349.637, 295.621 345.464, 303.080 330.843 C 305.399 326.298, 305.682 315.568, 303.614 310.619 L 302.228 307.302 317.273 306.651 C 336.459 305.821, 453.801 305.813, 460.699 306.642 L 465.898 307.267 463.507 310.401 C 455.862 320.425, 458.789 334.200, 470.163 341.727 C 473.421 343.883, 475.328 344.375, 480.425 344.375 C 495.699 344.375, 505.462 330.558, 501.052 315.183 C 500.192 312.184, 500.392 311.621, 503.211 309.103 C 505.650 306.923, 506.481 305.167, 507.085 300.914 C 508.087 293.860, 508.204 134.869, 507.209 133.304 C 506.652 132.427, 497.958 132.026, 474.687 131.804 C 449.761 131.565, 442.750 131.217, 442.113 130.184 C 441.666 129.460, 441.006 123.610, 440.645 117.184 C 439.762 101.427, 436.542 79.492, 434.085 72.502 C 431.554 65.299, 427.959 60.564, 422.297 56.973 L 417.855 54.157 425.178 48.752 C 429.205 45.780, 435.751 40.985, 439.725 38.098 C 450.013 30.622, 452 27.985, 452 21.809 C 452 15.548, 448.939 9.744, 444.042 6.717 C 441.093 4.894, 438.849 4.503, 430.504 4.358 C 425.002 4.262, 416.899 4.523, 412.498 4.938" stroke="none" fill="inherit" fill-rule="evenodd"></path>
</g></svg><svg id="name" viewBox="0 0 247.0659942626953 45.49399948120117" width="247" height="45.481847493381956" x="0" y="76.359375" data-v-719f541d="" style="fill: rgb(0, 0, 0);"><rect x="0" y="0" width="100%" height="100%" fill="none" data-v-719f541d=""></rect><g data-v-719f541d=""><path xmlns="http://www.w3.org/2000/svg" d="M12.37 36.57L12.37 36.57Q8.88 36.57 6.07 34.98Q3.27 33.40 1.63 30.54Q0 27.69 0 23.83L0 23.83Q0 19.92 1.63 17.07Q3.27 14.21 6.07 12.65Q8.88 11.09 12.37 11.09L12.37 11.09Q15.50 11.09 17.85 12.47Q20.19 13.85 21.48 16.65Q22.77 19.46 22.77 23.83L22.77 23.83Q22.77 28.15 21.53 30.98Q20.29 33.81 17.96 35.19Q15.64 36.57 12.37 36.57ZM13.62 30.68L13.62 30.68Q15.36 30.68 16.79 29.85Q18.22 29.03 19.07 27.48Q19.92 25.94 19.92 23.83L19.92 23.83Q19.92 21.67 19.07 20.15Q18.22 18.63 16.79 17.80Q15.36 16.97 13.62 16.97L13.62 16.97Q11.82 16.97 10.40 17.80Q8.97 18.63 8.12 20.15Q7.27 21.67 7.27 23.83L7.27 23.83Q7.27 25.94 8.12 27.48Q8.97 29.03 10.40 29.85Q11.82 30.68 13.62 30.68ZM26.96 36.20L20.10 36.20L20.10 31.14L20.24 23.78L19.78 16.47L19.78 2.07L26.96 2.07L26.96 36.20ZM40.76 36.20L33.58 36.20L33.58 11.45L40.76 11.45L40.76 36.20ZM37.17 8.00L37.17 8.00Q35.19 8.00 33.95 6.85Q32.71 5.70 32.71 4.00L32.71 4.00Q32.71 2.30 33.95 1.15Q35.19 0 37.17 0L37.17 0Q39.15 0 40.39 1.08Q41.63 2.16 41.63 3.86L41.63 3.86Q41.63 5.66 40.41 6.83Q39.19 8.00 37.17 8.00ZM59.06 45.49L59.06 45.49Q55.57 45.49 52.33 44.64Q49.08 43.79 46.92 42.09L46.92 42.09L49.77 36.94Q51.34 38.23 53.75 38.98Q56.17 39.74 58.51 39.74L58.51 39.74Q62.33 39.74 64.06 38.04Q65.78 36.34 65.78 32.98L65.78 32.98L65.78 29.26L66.24 23.05L66.15 16.79L66.15 11.45L72.96 11.45L72.96 32.06Q72.96 38.96 69.37 42.23Q65.78 45.49 59.06 45.49ZM57.96 35.01L57.96 35.01Q54.51 35.01 51.73 33.51Q48.94 32.02 47.27 29.32Q45.59 26.63 45.59 23.05L45.59 23.05Q45.59 19.41 47.27 16.72Q48.94 14.03 51.73 12.56Q54.51 11.09 57.96 11.09L57.96 11.09Q61.09 11.09 63.48 12.35Q65.87 13.62 67.21 16.26Q68.54 18.91 68.54 23.05L68.54 23.05Q68.54 27.14 67.21 29.78Q65.87 32.43 63.48 33.72Q61.09 35.01 57.96 35.01ZM59.39 29.12L59.39 29.12Q61.27 29.12 62.74 28.36Q64.22 27.60 65.04 26.22Q65.87 24.84 65.87 23.05L65.87 23.05Q65.87 21.21 65.04 19.85Q64.22 18.49 62.74 17.73Q61.27 16.97 59.39 16.97L59.39 16.97Q57.50 16.97 56.03 17.73Q54.56 18.49 53.71 19.85Q52.85 21.21 52.85 23.05L52.85 23.05Q52.85 24.84 53.71 26.22Q54.56 27.60 56.03 28.36Q57.50 29.12 59.39 29.12ZM86.80 36.20L79.63 36.20L79.63 11.45L86.80 11.45L86.80 36.20ZM83.21 8.00L83.21 8.00Q81.24 8.00 79.99 6.85Q78.75 5.70 78.75 4.00L78.75 4.00Q78.75 2.30 79.99 1.15Q81.24 0 83.21 0L83.21 0Q85.19 0 86.43 1.08Q87.68 2.16 87.68 3.86L87.68 3.86Q87.68 5.66 86.46 6.83Q85.24 8.00 83.21 8.00ZM103.59 36.57L103.59 36.57Q99.22 36.57 96.78 34.34Q94.35 32.11 94.35 27.69L94.35 27.69L94.35 5.98L101.52 5.98L101.52 27.60Q101.52 29.16 102.35 30.01Q103.18 30.87 104.60 30.87L104.60 30.87Q106.31 30.87 107.50 29.95L107.50 29.95L109.43 35.01Q108.33 35.79 106.79 36.18Q105.25 36.57 103.59 36.57ZM107.69 17.53L90.53 17.53L90.53 12.01L107.69 12.01L107.69 17.53ZM135.38 36.20L128.66 36.20L128.66 31.37L128.20 30.31L128.20 21.67Q128.20 19.37 126.80 18.08Q125.40 16.79 122.50 16.79L122.50 16.79Q120.52 16.79 118.61 17.41Q116.70 18.03 115.37 19.09L115.37 19.09L112.79 14.08Q114.82 12.65 117.67 11.87Q120.52 11.09 123.46 11.09L123.46 11.09Q129.12 11.09 132.25 13.75Q135.38 16.42 135.38 22.08L135.38 22.08L135.38 36.20ZM121.12 36.57L121.12 36.57Q118.22 36.57 116.15 35.58Q114.08 34.59 112.98 32.89Q111.87 31.19 111.87 29.07L111.87 29.07Q111.87 26.86 112.95 25.21Q114.03 23.55 116.38 22.61Q118.73 21.67 122.50 21.67L122.50 21.67L129.08 21.67L129.08 25.85L123.28 25.85Q120.75 25.85 119.81 26.68Q118.86 27.51 118.86 28.75L118.86 28.75Q118.86 30.13 119.95 30.93Q121.03 31.74 122.91 31.74L122.91 31.74Q124.71 31.74 126.13 30.89Q127.56 30.04 128.20 28.38L128.20 28.38L129.31 31.69Q128.52 34.09 126.45 35.33Q124.38 36.57 121.12 36.57ZM149.04 36.20L141.86 36.20L141.86 2.07L149.04 2.07L149.04 36.20ZM172.87 36.20L156.22 36.20L156.22 4.00L171.95 4.00Q178.02 4.00 181.08 6.30Q184.14 8.60 184.14 12.37L184.14 12.37Q184.14 14.90 182.90 16.77Q181.65 18.63 179.49 19.64Q177.33 20.65 174.52 20.65L174.52 20.65L175.40 18.77Q178.43 18.77 180.78 19.76Q183.13 20.75 184.44 22.68Q185.75 24.61 185.75 27.42L185.75 27.42Q185.75 31.56 182.48 33.88Q179.22 36.20 172.87 36.20L172.87 36.20ZM163.62 9.61L163.62 30.59L172.32 30.59Q175.21 30.59 176.71 29.65Q178.20 28.70 178.20 26.63L178.20 26.63Q178.20 24.61 176.71 23.62Q175.21 22.63 172.32 22.63L172.32 22.63L163.07 22.63L163.07 17.20L171.03 17.20Q173.74 17.20 175.19 16.26Q176.64 15.32 176.64 13.39L176.64 13.39Q176.64 11.50 175.19 10.56Q173.74 9.61 171.03 9.61L171.03 9.61L163.62 9.61ZM201.34 36.57L201.34 36.57Q198.26 36.57 195.85 35.37Q193.43 34.18 192.10 31.72Q190.76 29.26 190.76 25.44L190.76 25.44L190.76 11.45L197.94 11.45L197.94 24.38Q197.94 27.46 199.25 28.91Q200.56 30.36 202.95 30.36L202.95 30.36Q204.61 30.36 205.90 29.65Q207.18 28.93 207.92 27.44Q208.66 25.94 208.66 23.69L208.66 23.69L208.66 11.45L215.83 11.45L215.83 36.20L209.02 36.20L209.02 29.39L210.27 31.37Q209.02 33.95 206.61 35.26Q204.19 36.57 201.34 36.57ZM225.63 45.49L225.63 45.49Q223.70 45.49 221.81 44.90Q219.93 44.30 218.73 43.24L218.73 43.24L221.35 38.13Q222.18 38.87 223.26 39.28Q224.34 39.70 225.40 39.70L225.40 39.70Q226.92 39.70 227.82 38.98Q228.71 38.27 229.45 36.62L229.45 36.62L230.74 33.58L231.29 32.80L240.17 11.45L247.07 11.45L235.89 37.72Q234.69 40.71 233.15 42.41Q231.61 44.11 229.75 44.80Q227.88 45.49 225.63 45.49ZM234.78 32.15L229.86 37.17L218.82 11.45L226.23 11.45L234.78 32.15Z"></path></g></svg><!----></svg>